<svg xmlns="http://www.w3.org/2000/svg" xmlns:xlink="http://www.w3.org/1999/xlink" width="100.421" height="180.135" viewBox="0 0 100.421 180.135">
  <defs>
    <clipPath id="clip-path">
      <rect id="Rectangle_4" data-name="Rectangle 4" width="40.026" height="49.692" fill="#023e57"/>
    </clipPath>
  </defs>
  <g id="mobile_development" data-name="mobile development" transform="translate(-1454.264 -1729.02)">
    <g id="Group_9" data-name="Group 9" transform="translate(1454.264 1729.02)">
      <g id="Group_5" data-name="Group 5">
        <path id="Path_8" data-name="Path 8" d="M448.068,594.86H509.2c9.22,0,16.737-8.51,16.737-17.871V435.151c0-9.362-7.517-16.311-16.879-16.311h-60.99c-9.22,0-16.879,6.1-16.879,15.46V576.563C431.189,585.925,438.848,594.86,448.068,594.86Z" transform="translate(-429.061 -415.435)" fill="#f4efef"/>
        <path id="Path_9" data-name="Path 9" d="M521.9,452.391h-80l-.851-.426V578.627H521.9Z" transform="translate(-431.828 -424.732)" fill="#f6fdff"/>
        <path id="Path_10" data-name="Path 10" d="M447.663,594.242c-10.5,0-19.432-8.652-19.432-18.865V433.114c0-10.213,8.936-18.864,19.432-19.007l62.125.143a18.646,18.646,0,0,1,18.723,18.864l.142,142.263h0a18.856,18.856,0,0,1-18.865,18.865Zm0-177.3c-8.936,0-16.595,7.376-16.595,16.17V575.377c0,8.652,7.659,16.027,16.595,16.027H509.5a16.1,16.1,0,0,0,16.028-16.027l-.142-142.263A15.8,15.8,0,0,0,509.5,417.086Z" transform="translate(-428.231 -414.107)" fill="#023e57"/>
        <path id="Path_11" data-name="Path 11" d="M521.775,580.09H439.509a1.34,1.34,0,0,1-1.419-1.418V451.017a1.34,1.34,0,0,1,1.419-1.418h64.536a1.419,1.419,0,0,1,0,2.837H440.927V577.253h79.429V452.436H516.81a1.419,1.419,0,0,1,0-2.837h4.965a1.34,1.34,0,0,1,1.418,1.418V578.671A1.339,1.339,0,0,1,521.775,580.09Z" transform="translate(-430.998 -424.068)" fill="#023e57"/>
        <path id="Path_12" data-name="Path 12" d="M503.731,436.662H483.873a1.418,1.418,0,0,1,0-2.837h19.858a1.418,1.418,0,0,1,0,2.837Z" transform="translate(-443.449 -419.641)" fill="#023e57"/>
        <path id="Path_13" data-name="Path 13" d="M474.605,434.887a1.286,1.286,0,0,1-.993-.426,1.53,1.53,0,0,1-.426-.993,1.288,1.288,0,0,1,.426-.993,1.371,1.371,0,0,1,1.986,0,1.419,1.419,0,0,1-.993,2.411Z" transform="translate(-440.848 -417.866)" fill="#023e57"/>
        <path id="Path_14" data-name="Path 14" d="M494.724,650.217a7.963,7.963,0,0,1-4.4-1.276,8.455,8.455,0,0,1-3.83-5.248,8.289,8.289,0,0,1,.992-6.383,8.458,8.458,0,0,1,5.249-3.83,8.1,8.1,0,0,1,3.687,0,1.447,1.447,0,1,1-.567,2.837,7.739,7.739,0,0,0-2.553,0,5.81,5.81,0,0,0-3.546,2.553,5.644,5.644,0,0,0-.709,4.255,5.808,5.808,0,0,0,2.554,3.547,5.643,5.643,0,0,0,4.255.709,5.808,5.808,0,0,0,3.546-2.554,5.642,5.642,0,0,0,.709-4.255,1.393,1.393,0,1,1,2.694-.709,8.282,8.282,0,0,1-.992,6.383,8.452,8.452,0,0,1-5.248,3.83C496,650.075,495.292,650.217,494.724,650.217Z" transform="translate(-444.513 -475.614)" fill="#023e57"/>
      </g>
      <g id="Group_8" data-name="Group 8" transform="translate(30.198 65.222)">
        <g id="Group_7" data-name="Group 7" transform="translate(0)">
          <g id="Group_6" data-name="Group 6" clip-path="url(#clip-path)">
            <path id="Path_15" data-name="Path 15" d="M498.873,509.762l2.17-3.616a.869.869,0,1,0-1.49-.895l-2.291,3.817a12.783,12.783,0,0,0-8.7,0l-2.291-3.817a.869.869,0,1,0-1.49.895l2.171,3.616a13.04,13.04,0,0,0-7.074,11.579.869.869,0,0,0,.869.87h24.334a.87.87,0,0,0,.869-.87,13.041,13.041,0,0,0-7.074-11.579Zm0,0" transform="translate(-472.923 -504.79)" fill="#023e57"/>
          </g>
        </g>
        <path id="Path_16" data-name="Path 16" d="M482.338,522.506a11.3,11.3,0,0,1,22.529,0Zm0,0" transform="translate(-473.614 -506.825)" fill="#bf353e"/>
        <path id="Path_17" data-name="Path 17" d="M505.756,518.557H504.61a.573.573,0,0,0-.573.572v1.147a.573.573,0,0,0,.573.573h1.145a.573.573,0,0,0,.573-.573v-1.147a.573.573,0,0,0-.573-.572Zm0,0" transform="translate(-479.704 -508.643)" fill="#314e55"/>
        <path id="Path_18" data-name="Path 18" d="M490.488,518.557h-1.145a.573.573,0,0,0-.573.572v1.147a.573.573,0,0,0,.573.573h1.145a.573.573,0,0,0,.573-.573v-1.147a.572.572,0,0,0-.573-.572Zm0,0" transform="translate(-475.419 -508.643)" fill="#314e55"/>
        <path id="Path_19" data-name="Path 19" d="M505.077,530.2H480.744a.869.869,0,0,0-.869.87V548.6a4.2,4.2,0,0,0,4.2,4.2h1.013v5.219a3.476,3.476,0,0,0,6.953,0v-5.22h1.738v5.22a3.476,3.476,0,0,0,6.951,0v-5.22h1.013a4.2,4.2,0,0,0,4.2-4.2v-17.53a.869.869,0,0,0-.869-.87Zm0,0" transform="translate(-472.923 -511.91)" fill="#023e57"/>
        <path id="Path_20" data-name="Path 20" d="M504.887,549.276a2.464,2.464,0,0,1-2.463,2.459h-1.882a.869.869,0,0,0-.87.869v6.088a1.738,1.738,0,0,1-3.476,0V552.6a.869.869,0,0,0-.869-.869h-3.476a.868.868,0,0,0-.869.869v6.088a1.738,1.738,0,0,1-3.477,0V552.6a.868.868,0,0,0-.869-.869h-1.882a2.464,2.464,0,0,1-2.463-2.459v-16.66h22.595Zm0,0" transform="translate(-473.601 -512.588)" fill="#bf353e"/>
        <path id="Path_21" data-name="Path 21" d="M520.368,530.2a3.048,3.048,0,0,0-3.042,3.046V545.4a3.042,3.042,0,1,0,6.084,0v-12.16a3.047,3.047,0,0,0-3.042-3.046Zm0,0" transform="translate(-483.433 -511.91)" fill="#314e55"/>
        <path id="Path_22" data-name="Path 22" d="M522.35,546.083a1.3,1.3,0,1,1-2.607,0v-12.16a1.3,1.3,0,1,1,2.607,0Zm0,0" transform="translate(-484.112 -512.588)" fill="#bf353e"/>
        <path id="Path_23" data-name="Path 23" d="M473.252,530.2a3.048,3.048,0,0,0-3.042,3.046V545.4a3.042,3.042,0,1,0,6.084,0v-12.16a3.048,3.048,0,0,0-3.042-3.046Zm0,0" transform="translate(-470.21 -511.91)" fill="#023e57"/>
        <path id="Path_24" data-name="Path 24" d="M475.234,546.083a1.3,1.3,0,1,1-2.607,0v-12.16a1.3,1.3,0,1,1,2.607,0Zm0,0" transform="translate(-470.888 -512.588)" fill="#bf353e"/>
      </g>
    </g>
  </g>
</svg>
